<?xml version="1.0" encoding="utf-8"?>
<!-- Generator: Adobe Illustrator 26.5.0, SVG Export Plug-In . SVG Version: 6.00 Build 0)  -->
<svg version="1.1" id="Layer_1" xmlns="http://www.w3.org/2000/svg" xmlns:xlink="http://www.w3.org/1999/xlink" x="0px" y="0px"
	 viewBox="0 0 435.2 435.2" style="enable-background:new 0 0 435.2 435.2;" xml:space="preserve">
<style type="text/css">
	.st0{fill:#630800;}
	.st1{display:none;}
	.st2{fill:#D23327;}
</style>
<rect class="st0" width="435.2" height="435.2"/>
<g id="Layer_30" class="st1">
</g>
<g>
	<path class="st2" d="M190.6,87.8c7.9-2.2,16.2-2,24.3-2.7c-0.1,14.2,0.1,28.5-0.1,42.7c-4.9,0.1-9.7,0.7-14.5,1.3
		c-18.5,3.3-35.6,13-48.9,26.2c-5.7,6.3-10.9,13-14.5,20.7c-2.3,4.9-4.9,9.6-6.2,14.9c-1.3,4.6-2.8,9.2-3.1,13.9
		c-0.4,4.5-1.2,8.9-1.3,13.4c-0.2,4.3,0.9,8.5,1.3,12.7c1.1,10.4,5.1,20.2,9.8,29.4c4.5,8.7,10.8,16.4,17.9,23.2
		c5,4.7,10.8,8.5,16.6,12.1c3.7,2.5,8,3.8,12,5.6c4.8,2.2,10,3.2,15.1,4.3c9.4,1.6,18.9,2.3,28.4,1.5c4.9-0.8,9.6-2.3,14.5-3.2
		c4-0.9,7.7-2.8,11.5-4.4c18.1-7.9,33.2-22.3,42.4-39.7c3.6-7.1,6.5-14.5,8.2-22.3c-8.6-0.2-17.3,0.3-25.9-0.1
		c1.1-2.2,2.6-4.1,4-6.1c4.2-5.8,8.2-11.7,12.5-17.4c9.3-12.2,17.7-25.2,27.1-37.4c1.9-2.6,3.6-5.4,5.4-8c0.2,0,0.6,0,0.8,0
		c3.2,4.3,6.1,8.7,9.2,13c7.4,9.7,14,19.9,21.4,29.6c6.3,8.7,12.5,17.6,18.8,26.4c-10.2,0.3-20.3-0.2-30.5,0.2
		c-0.3,6-1.8,11.8-3.6,17.5c-1.2,4.8-2.9,9.4-4.9,13.8c-6.6,16-16.6,30.5-28.9,42.6c-15,15.4-34.3,26.3-54.8,32.6
		c-7,2.7-14.5,3.3-21.8,4.7c-10.6,1.2-21.3,1.4-31.9,0.4c-5-0.4-9.7-2.1-14.7-3c-3.8-0.6-7.4-2-11.1-3
		c-27.9-9.2-52.9-27.8-68.9-52.5c-7.5-11-12.8-23.3-16.8-36c-1.5-4.5-2.3-9.1-3.4-13.6c-1.2-5.2-1.4-10.6-1.7-15.9
		c-1.2-16.7,0.7-33.8,6.6-49.6c6.1-18.7,16.5-36,30.1-50.2c14.6-14.9,32.7-26.3,52.4-33.3C178.9,90.2,184.8,89.3,190.6,87.8z"/>
</g>
</svg>
