<?xml version="1.0" encoding="utf-8"?>
<!-- Generator: Adobe Illustrator 26.5.0, SVG Export Plug-In . SVG Version: 6.00 Build 0)  -->
<svg version="1.1" id="Layer_1" xmlns="http://www.w3.org/2000/svg" xmlns:xlink="http://www.w3.org/1999/xlink" x="0px" y="0px"
	 viewBox="0 0 435.2 435.2" style="enable-background:new 0 0 435.2 435.2;" xml:space="preserve">
<style type="text/css">
	.st0{display:none;}
	.st1{fill:#34495E;}
	.st2{fill:#2C3E50;}
	.st3{fill:#BDC3C7;}
	.st4{fill:#C0392B;}
	.st5{fill:#606060;}
	.st6{fill:#95A5A6;}
</style>
<g id="Layer_30" class="st0">
</g>
<path class="st1" d="M300.6,217.6c0,45.8-37.1,83-83,83c-45.8,0-83-37.1-83-83c0-45.8,37.1-83,83-83S300.6,171.7,300.6,217.6z"/>
<path class="st2" d="M217.6,134.6c-50,0-90.5,40.5-90.5,90.5h15.1c0-41.7,33.8-75.4,75.4-75.4c41.7,0,75.4,33.8,75.4,75.4h15.1
	C308.1,175.1,267.6,134.6,217.6,134.6z"/>
<path class="st3" d="M225.2,210v15.1h7.5H278c4.2,0,7.5-3.4,7.5-7.5c0-4.2-3.4-7.5-7.5-7.5h-45.2h-7.6V210z"/>
<path class="st3" d="M217.6,164.8c-4.2,0-7.5,3-7.5,7.5v30.2v7.5h15.1v-7.5v-30.2C225.2,167.8,221.8,164.8,217.6,164.8z"/>
<rect x="167.5" y="237.8" transform="matrix(0.7071 -0.7071 0.7071 0.7071 -113.9921 207.8558)" class="st4" width="52.8" height="7.5"/>
<path class="st3" d="M217.6,202.5c-8.3,0-15.1,6.8-15.1,15.1s6.7,15.1,15.1,15.1c8.3,0,15.1-6.8,15.1-15.1
	C232.7,209.3,226,202.5,217.6,202.5z M217.6,210c4.2,0,7.5,3,7.5,7.5c0,3.8-3.4,7.5-7.5,7.5c-4.2,0-7.5-3.8-7.5-7.5
	C210.1,213,213.5,210,217.6,210z"/>
<path class="st5" d="M217.6,127c-50,0-90.5,40-90.5,90.5c0,49.8,40.5,90.5,90.5,90.5s90.5-40.7,90.5-90.5
	C308.1,167,267.6,127,217.6,127z M217.6,142.1c41.7,0,75.4,33.2,75.4,75.4c0,41.5-33.8,75.4-75.4,75.4c-41.7,0-75.4-33.9-75.4-75.4
	C142.2,175.3,176,142.1,217.6,142.1z"/>
<path class="st2" d="M225.2,217.5c0,4.2-3.4,7.5-7.5,7.5c-4.2,0-7.5-3.4-7.5-7.5c0-4.2,3.4-7.5,7.5-7.5S225.2,213.4,225.2,217.5z"/>
<path class="st6" d="M230.7,210c1.3,2.3,2.1,4.5,2.1,7.5c0,2.3-0.8,5.3-2.1,7.5h2.1h6.1c0.9-3,1.4-5.3,1.4-7.5c0-3-0.6-5.3-1.4-7.5
	h-6.1H230.7z"/>
</svg>
